<?xml version="1.0" encoding="UTF-8"?>
<svg width="752pt" height="752pt" version="1.1" viewBox="0 0 752 752" xmlns="http://www.w3.org/2000/svg">
 <g fill="#fff" fill-rule="evenodd">
  <path d="m198.41 178.68h78.93c10.898 0 19.734 10.898 19.734 19.734v355.19c0 10.898-8.8359 19.734-19.734 19.734h-78.93c-10.898 0-19.734-10.898-19.734-19.734v-355.19c0-10.898 8.8359-19.734 19.734-19.734z"/>
  <path d="m336.54 178.68h78.93c10.898 0 19.734 10.898 19.734 19.734v197.32c0 10.898-8.8359 19.734-19.734 19.734h-78.93c-10.898 0-19.734-10.898-19.734-19.734v-197.32c0-10.898 8.8359-19.734 19.734-19.734z"/>
  <path d="m474.66 178.68h78.93c10.898 0 19.734 10.898 19.734 19.734v276.25c0 10.898-8.8359 19.734-19.734 19.734h-78.93c-10.898 0-19.734-10.898-19.734-19.734v-276.25c0-10.898 8.8359-19.734 19.734-19.734z"/>
 </g>
</svg>
